<svg xmlns="http://www.w3.org/2000/svg" width="1920" height="1080" viewBox="0 0 1920 1080" role="img" aria-label="Drone Shot — Finished Roof or Local Landmark">
  <defs><linearGradient id="g" x1="0" y1="0" x2="1" y2="1">
    <stop offset="0" stop-color="#26221f"/><stop offset="1" stop-color="#16130f"/></linearGradient></defs>
  <rect width="1920" height="1080" fill="url(#g)"/>
  <rect x="0" y="0" width="1920" height="6" fill="#d2222a"/>
  <rect x="0" y="0" width="6" height="90" fill="#d2222a"/>
  <g transform="translate(960.0,510.0)" opacity="0.85"><path d="M-26 -10 h52 M0 -10 v20 M-22 -14 a6 6 0 1 1 .1 0 M22 -14 a6 6 0 1 1 .1 0 M-22 14 a6 6 0 1 1 .1 0 M22 14 a6 6 0 1 1 .1 0" fill="none" stroke="#fff" stroke-width="2.5"/><circle cx="0" cy="0" r="6" fill="#fff"/></g>
  <text x="50%" y="570.0" fill="#ffffff" font-family="Arial, sans-serif" font-size="61" font-weight="700" text-anchor="middle">Drone Shot — Finished Roof or Local Landmark</text>
  <text x="50%" y="627.0" fill="#b7a99c" font-family="Arial, sans-serif" font-size="38" text-anchor="middle">Roxy Ann / Table Rock / a roof you completed</text>
</svg>