<svg xmlns="http://www.w3.org/2000/svg" width="800" height="600" viewBox="0 0 800 600" role="img" aria-label="Drone Inspection — Rogue Valley">
  <defs><linearGradient id="g" x1="0" y1="0" x2="1" y2="1">
    <stop offset="0" stop-color="#26221f"/><stop offset="1" stop-color="#16130f"/></linearGradient></defs>
  <rect width="800" height="600" fill="url(#g)"/>
  <rect x="0" y="0" width="800" height="6" fill="#d2222a"/>
  <rect x="0" y="0" width="6" height="90" fill="#d2222a"/>
  <g transform="translate(400.0,270.0)" opacity="0.85"><path d="M-26 -10 h52 M0 -10 v20 M-22 -14 a6 6 0 1 1 .1 0 M22 -14 a6 6 0 1 1 .1 0 M-22 14 a6 6 0 1 1 .1 0 M22 14 a6 6 0 1 1 .1 0" fill="none" stroke="#fff" stroke-width="2.5"/><circle cx="0" cy="0" r="6" fill="#fff"/></g>
  <text x="50%" y="330.0" fill="#ffffff" font-family="Arial, sans-serif" font-size="25" font-weight="700" text-anchor="middle">Drone Inspection — Rogue Valley</text>
  <text x="50%" y="354.0" fill="#b7a99c" font-family="Arial, sans-serif" font-size="16" text-anchor="middle">Replace with a drone shot</text>
</svg>